<svg width="391" height="276" fill="none" xmlns="http://www.w3.org/2000/svg"><path d="M100.109 160.611s-1.369 85.518-11.931 87.641c-5.452 1.096-39.216-5.671-55.6-20.551-15.359-13.948-24.407-68.977-27.53-76.356-6.455-15.25-9.193-49.612 7.237-59.65 16.43-10.038 42.836-29.728 48.118-40.925 5.28-11.196 21.32-28.184 33.643-24.323 12.322 3.86 17.017-.772 17.017-.772s6.846-9.652 24.645-14.865C153.508 5.598 183.435 0 196.54 0c13.105 0 57.506 5.984 66.699 10.231 9.193 4.247 19.756 13.706 19.756 13.706l3.382 2.808s.899 2.389 6.985.819c6.085-1.57 22.268-4.914 32.987 10.51 10.719 15.425 21.783 29.28 24.411 31.123s16.342 13.425 21.428 16.224c5.085 2.8 20.049 12.837 17.897 29.536-2.151 16.698 2.347 81.56-8.117 93.432-10.465 11.872-28.264 30.983-28.264 30.983s-31.981-12.74-41.467-29.342c-9.487-16.602-18.093-51.446-18.093-51.446s-1.956-3.475-4.792 1.448c-2.837 4.923-13.888 30.404-13.888 30.404s-1.565 9.459-.293 18.146c1.271 8.687 2.934 25.385-1.467 31.852-4.401 6.467-13.497 17.663-21.614 20.656-8.117 2.992-19.853 6.177-19.853 6.177l-7.335 4.729s-8.216 3.958-23.472 3.572c-15.257-.386-23.374-.869-24.352-1.255-.978-.386-7.14-1.93-9.291-3.861-2.152-1.93-23.57-9.362-23.57-9.362s-21.907-12.066-24.646-24.71c-2.738-12.644.881-30.114 1.076-33.879.196-3.764-3.912-23.84-8.802-31.562-4.89-7.722-6.846-19.015-11.736-10.328Z" fill="url(#a)"/><path d="M141.536 245.888c8.926-.406 19.723-4.604 26.121-9.066 33.096-23.08 31.969-29.427 31.969-29.427 17.773 25.678 25.386 32.381 55.047 38.766M199.764 207.804l-1.383-38.629" stroke="#2B2D42" stroke-width="3" stroke-linecap="round" stroke-linejoin="round"/><path d="M138.255 146.157c-6.93-.533-13.197-3.04-18.557-7.424-1.422-1.163-4.95-4.714-5.986-6.026-3.479-4.404-5.782-9.562-6.919-15.5-.401-2.092-.62-4.068-.781-7.05l-.139-2.568-.401-.028-1.479-.099c-1.042-.07-1.092-.086-1.521-.497l-.444-.426-.021-2.748c-.02-2.656-.013-2.762.234-3.168.141-.232.345-.458.454-.504.109-.045 1.094-.127 2.188-.18 1.095-.053 2.006-.113 2.026-.134.02-.02.198-.692.396-1.494.935-3.793 2.071-6.746 3.589-9.335 3.462-5.903 9.746-10.411 18.301-13.13 4.294-1.363 7.979-2.067 13.875-2.647 2.076-.205 12.795-.201 15.188.005 3.414.293 8.081.981 10.947 1.613l1.433.316 28.321.04 28.321.042 1.575-.357c1.743-.395 5.029-.94 7.407-1.228a338.12 338.12 0 0 0 2.35-.293c3.174-.416 14.244-.457 17.652-.066 9.345 1.073 15.083 2.689 20.821 5.864 4.158 2.3 7.461 5.329 9.832 9.015 1.832 2.847 3.146 6.134 4.191 10.482l.315 1.313H296.624l.424.443.424.442-.002 2.855-.002 2.854-.426.467-.425.466-2.122.059-2.122.058-.025 1.167c-.017.642-.08 2.034-.146 3.093-.433 6.948-2.407 13.122-5.913 18.497-2.607 3.996-6.94 8.229-11.121 10.864a32.404 32.404 0 0 1-24.404 4.238c-6.057-1.345-12.472-4.624-18.299-9.352-8.923-7.241-17.858-18.204-21.997-26.989-1.562-3.317-2.495-6.17-3.167-9.686-.159-.835-.202-1.69-.205-4.163-.004-3.109-.004-3.113-.276-3.406-.584-.634-2.866-1.615-4.6-1.978-3.339-.699-7.404-.446-10.067.625-1.304.524-1.312.538-1.089 1.748.264 1.433.263 4.906-.002 6.648-1.086 7.127-4.739 14.539-11.245 22.815-4.261 5.42-9.491 10.761-14.163 14.464-6.097 4.832-12.423 7.995-18.666 9.333-2.567.55-6.358.832-8.733.65Zm70.49-58.61c1.321-2.804 3.386-5.236 6.357-7.485l1.25-.947-.447-.08c-.592-.108-33.515-.103-33.782.004-.164.066.093.31 1.254 1.188 2.536 1.92 4.249 3.859 5.853 6.627.499.861.67 1.07.82 1.003 2.668-1.192 6.535-1.816 9.734-1.571 2.988.229 4.799.702 7.123 1.861.656.328 1.212.596 1.234.596.022 0 .294-.539.604-1.197Z" fill="#2B2D42" stroke="#2B2D42" stroke-width="3"/><path d="M198.515 175.855c6.104 0 11.053-2.93 11.053-6.544 0-3.615-4.949-6.545-11.053-6.545-6.104 0-11.052 2.93-11.052 6.545 0 3.614 4.948 6.544 11.052 6.544Z" fill="#2B2D42"/><defs><linearGradient id="a" x1="84" y1="37" x2="310" y2="229" gradientUnits="userSpaceOnUse"><stop stop-color="#8080FF"/><stop offset=".5" stop-color="#C274B8"/><stop offset="1" stop-color="#FC6168"/></linearGradient></defs></svg>
